<svg fill="none" height="24" viewBox="0 0 24 24" width="24" xmlns="http://www.w3.org/2000/svg">
<mask height="24" id="mask0_4238_40" maskUnits="userSpaceOnUse" style="mask-type:luminance" width="24" x="0" y="0">
<path d="M24.6348 0H1V23.6348H24.6348V0Z" fill="white"></path>
</mask>
<g mask="url(#mask0_4238_40)">
<path d="M7.22763 8.62342C7.24415 6.37269 8.13673 4.21692 9.71609 2.61328H9.71318L3.61572 8.71074H3.61863C3.59593 8.7286 3.57453 8.74804 3.55459 8.76894C2.0717 10.2499 1.17264 12.216 1.02241 14.3063C0.872184 16.3967 1.48087 18.4711 2.73675 20.149L8.89533 13.9903L8.95936 13.9292C7.81152 12.4007 7.20254 10.5348 7.22763 8.62342Z" fill="#0C8C5E"></path>
<path d="M22.0327 14.9336C20.8657 16.0773 19.4008 16.8701 17.805 17.2216C16.2093 17.573 14.5469 17.469 13.0074 16.9215C12.1865 16.63 11.415 16.2149 10.7197 15.6904L10.6556 15.7544L4.49707 21.91C6.17554 23.1628 8.24884 23.7695 10.3379 23.6194C12.427 23.4692 14.3921 22.5721 15.8741 21.0921L15.9353 21.031L22.0327 14.9336Z" fill="#0C8C5E"></path>
<path d="M24.6467 8.71108V4.35893e-06H15.9356C14.7916 -0.00114182 13.6586 0.223763 12.6016 0.661799C11.5448 1.09984 10.5848 1.74238 9.77701 2.5525L9.71589 2.61362C8.6511 3.6946 7.88927 5.03658 7.50684 6.50493C8.19913 6.32565 8.91058 6.23087 9.62567 6.22262C11.5371 6.20012 13.4024 6.80995 14.9315 7.95726C16.3057 8.98207 17.3457 10.3908 17.9206 12.0058C18.5064 13.6564 18.5834 15.4449 18.1417 17.1398C19.6104 16.7581 20.9525 15.9961 22.033 14.9308L22.0942 14.8726C22.9046 14.0644 23.5474 13.104 23.9854 12.0466C24.4234 10.9892 24.6482 9.85563 24.6467 8.71108Z" fill="#18E299"></path>
</g>
</svg>
